<svg width="107" height="49" viewBox="0 0 107 49" fill="none" xmlns="http://www.w3.org/2000/svg">
<path d="M2.464 16L4.112 7.728H0.832L1.424 4.8H11.76L11.168 7.728H7.888L6.24 16H2.464ZM20.1547 4.8H23.9307L21.6908 16H17.9148L20.1547 4.8ZM14.4267 16H10.6507L12.8907 4.8H16.6667L14.4267 16ZM18.9867 11.872H15.0027L15.6267 8.768H19.6108L18.9867 11.872ZM28.5241 8.96H33.5161L32.9721 11.68H27.9801L28.5241 8.96ZM27.9321 13.152H33.5481L32.9721 16H23.6601L25.9001 4.8H35.0041L34.4281 7.648H29.0361L27.9321 13.152ZM6.4 30.256C5.248 30.256 4.24 30.048 3.376 29.632C2.512 29.2053 1.84 28.6187 1.36 27.872C0.890667 27.1147 0.656 26.24 0.656 25.248C0.656 24.2667 0.826667 23.3653 1.168 22.544C1.52 21.7227 2.01067 21.0133 2.64 20.416C3.26933 19.8187 4.016 19.36 4.88 19.04C5.744 18.7093 6.69333 18.544 7.728 18.544C8.80533 18.544 9.76 18.736 10.592 19.12C11.424 19.504 12.0427 20.0587 12.448 20.784L9.728 22.912C9.49333 22.496 9.18933 22.176 8.816 21.952C8.44267 21.7173 8 21.6 7.488 21.6C7.04 21.6 6.62933 21.6853 6.256 21.856C5.89333 22.016 5.57867 22.2507 5.312 22.56C5.04533 22.8587 4.83733 23.216 4.688 23.632C4.53867 24.048 4.464 24.5067 4.464 25.008C4.464 25.4453 4.56 25.8293 4.752 26.16C4.944 26.4907 5.21067 26.7467 5.552 26.928C5.904 27.1093 6.30933 27.2 6.768 27.2C7.20533 27.2 7.632 27.0987 8.048 26.896C8.47467 26.6933 8.88 26.3627 9.264 25.904L11.488 28.032C10.8053 28.864 10.0427 29.4453 9.2 29.776C8.368 30.096 7.43467 30.256 6.4 30.256ZM21.5922 18.8H25.3682L23.1283 30H19.3523L21.5922 18.8ZM15.8642 30H12.0882L14.3282 18.8H18.1042L15.8642 30ZM20.4242 25.872H16.4402L17.0642 22.768H21.0483L20.4242 25.872ZM23.8816 30L31.0176 18.8H34.7296L37.3856 30H33.6256L31.8176 20.544H33.2896L27.8656 30H23.8816ZM27.1776 28.048L28.6816 25.328H33.8336L34.2496 28.048H27.1776ZM38.1383 30L40.3783 18.8H44.1543L41.9143 30H38.1383ZM43.882 30L46.122 18.8H49.226L53.434 25.616H52.122L53.482 18.8H57.162L54.922 30H51.818L47.61 23.184H48.922L47.562 30H43.882ZM9.536 32.8H13.312L11.072 44H7.296L9.536 32.8ZM3.808 44H0.032L2.272 32.8H6.048L3.808 44ZM8.368 39.872H4.384L5.008 36.768H8.992L8.368 39.872ZM18.6894 44.256C17.5267 44.256 16.556 44.0373 15.7774 43.6C14.9987 43.152 14.444 42.5333 14.1134 41.744C13.7934 40.944 13.74 40.016 13.9534 38.96L15.1854 32.8H18.9614L17.7454 38.896C17.6707 39.2907 17.644 39.632 17.6654 39.92C17.6867 40.208 17.756 40.448 17.8734 40.64C18.0014 40.832 18.172 40.976 18.3854 41.072C18.5987 41.1573 18.8547 41.2 19.1534 41.2C19.516 41.2 19.8254 41.1253 20.0814 40.976C20.348 40.8267 20.5667 40.5813 20.7374 40.24C20.9187 39.8987 21.0627 39.4507 21.1694 38.896L22.3854 32.8H26.0974L24.8334 39.12C24.5027 40.7947 23.8254 42.0693 22.8014 42.944C21.7774 43.8187 20.4067 44.256 18.6894 44.256ZM25.7382 44L27.9782 32.8H33.9142C35.2476 32.8 36.2502 33.0347 36.9222 33.504C37.5943 33.9627 37.9303 34.6187 37.9303 35.472C37.9303 36.1653 37.7276 36.752 37.3222 37.232C36.9276 37.712 36.3782 38.08 35.6742 38.336C34.9809 38.5813 34.1809 38.704 33.2742 38.704L33.7542 37.84C34.8956 37.84 35.7916 38.0693 36.4422 38.528C37.1036 38.976 37.4342 39.6107 37.4342 40.432C37.4342 41.2533 37.1942 41.9307 36.7142 42.464C36.2449 42.9867 35.6156 43.376 34.8263 43.632C34.0369 43.8773 33.1622 44 32.2022 44H25.7382ZM29.9782 41.36H32.4102C32.7836 41.36 33.0876 41.2747 33.3222 41.104C33.5676 40.9333 33.6902 40.6773 33.6902 40.336C33.6902 40.0907 33.5942 39.9093 33.4022 39.792C33.2209 39.664 33.0076 39.6 32.7622 39.6H30.0742L30.5702 37.104H32.7462C33.0342 37.104 33.2689 37.0667 33.4502 36.992C33.6422 36.9067 33.7809 36.7947 33.8663 36.656C33.9516 36.5067 33.9942 36.3307 33.9942 36.128C33.9942 35.8933 33.9036 35.7227 33.7222 35.616C33.5516 35.4987 33.3116 35.44 33.0022 35.44H31.1622L29.9782 41.36Z" fill="white"/>
<path d="M98.8334 30.625V15.3125L86.0729 8.13504M78.9271 8.13504L66.1667 15.3125V30.625M69.2292 35.4107L82.5 42.875L90.6667 38.2813L95.7709 35.4097M82.5 17.3542V10.2084M88.625 27.5625L95.7709 31.6459M76.375 27.5625L69.2292 31.6459M79.4375 19.1406L76.375 20.9271V28.0729L79.4375 29.8594L82.5 31.6459L85.5625 29.8594L88.625 28.0729V20.9271L85.5625 19.1406L82.5 17.3542L79.4375 19.1406Z" stroke="white" stroke-width="4" stroke-linecap="round" stroke-linejoin="round"/>
<path d="M82.5 10.2083C84.1914 10.2083 85.5625 8.83722 85.5625 7.14584C85.5625 5.45447 84.1914 4.08334 82.5 4.08334C80.8087 4.08334 79.4375 5.45447 79.4375 7.14584C79.4375 8.83722 80.8087 10.2083 82.5 10.2083Z" stroke="white" stroke-width="4" stroke-linecap="round" stroke-linejoin="round"/>
<path d="M66.1667 36.75C67.8581 36.75 69.2292 35.3789 69.2292 33.6875C69.2292 31.9961 67.8581 30.625 66.1667 30.625C64.4753 30.625 63.1042 31.9961 63.1042 33.6875C63.1042 35.3789 64.4753 36.75 66.1667 36.75Z" stroke="white" stroke-width="4" stroke-linecap="round" stroke-linejoin="round"/>
<path d="M98.8333 36.75C100.525 36.75 101.896 35.3789 101.896 33.6875C101.896 31.9961 100.525 30.625 98.8333 30.625C97.142 30.625 95.7708 31.9961 95.7708 33.6875C95.7708 35.3789 97.142 36.75 98.8333 36.75Z" stroke="white" stroke-width="4" stroke-linecap="round" stroke-linejoin="round"/>
</svg>
